# xmcd CD database file
#
# Track frame offsets:
#	150
#	30336
#	67022
#	90914
#	127593
#	142747
#	158343
#	179325
#	187634
#	215928
#	247799
#	266321
#	289226
#	308183
#
# Disc length: 4439 seconds
#
# Revision: 0
# Processed by: cddbd v1.5.2PL0 Copyright (c) Steve Scherf et al.
# Submitted via: CDex 1.70beta2
#
DISCID=aa11550e
DTITLE=JayJayBeCe - Berlin Jazz Composers Songbook Vol. 2
DYEAR=1997
DGENRE=Jazz
TTITLE0=Heavy Weight - Helmut Brandt
TTITLE1=Next To Halifax - Christof Griese
TTITLE2=Tanz Der Walrosse - Thomas Bergmann
TTITLE3=Swomp - Oliver Lepinat
TTITLE4=Improvisorium Part 1 - Christof Griese
TTITLE5=Improvisorium Part 2 - Christof Griese
TTITLE6=Improvisorium Part 3 - Christof Griese
TTITLE7=Improvisorium Part 4 - Christof Griese
TTITLE8=The Line - Nikolaus Schäuble
TTITLE9=Loneliness - Nikolaus Schäuble
TTITLE10=So What Is This - Nikolaus Schäuble
TTITLE11=Blues A La Quart - Christof Griese
TTITLE12=18 Arabs - Nikolaus Schäuble
TTITLE13=No.1 - Nikolaus Schäuble
EXTD=YEAR: 1997
EXTT0=
EXTT1=
EXTT2=
EXTT3=
EXTT4=
EXTT5=
EXTT6=
EXTT7=
EXTT8=
EXTT9=
EXTT10=
EXTT11=
EXTT12=
EXTT13=
PLAYORDER=
